PathFileType	4	(X/Y/Z)	Patient4_TMGait_0pt4_03_left_02.trc.trc
DataRate	CameraRate	NumFrames	NumMarkers	Units	OrigDataRate	OrigDataStartFrame	OrigNumFrames
75.675675675676	75.675675675676	5	33	mm	75.675675675676	53	       141
Frame#	Time	Sacral			L.Shoulder			Chest			R.Shoulder			Neck			R.ASIS			L.ASIS			R.Thigh.Superior			R.Thigh.Lateral			R.Thigh.Inferior			R.Patella			L.Thigh.Superior			L.Thigh.Lateral			L.Thigh.Inferior			L.Patella			L.Shank.Superior			L.Shank.Lateral			L.Shank.Inferior			R.Shank.Superior			R.Shank.Lateral			R.Shank.Inferior			R.Heel			R.Midfoot.Superior			R.Midfoot.Lateral			R.Toe			L.Heel			L.Midfoot.Lateral			L.Midfoot.Superior			L.Toe			L.Elbow			L.Wrist			R.Elbow			R.Wrist			
		X1	Y1	Z1	X2	Y2	Z2	X3	Y3	Z3	X4	Y4	Z4	X5	Y5	Z5	X6	Y6	Z6	X7	Y7	Z7	X8	Y8	Z8	X9	Y9	Z9	X10	Y10	Z10	X11	Y11	Z11	X12	Y12	Z12	X13	Y13	Z13	X14	Y14	Z14	X15	Y15	Z15	X16	Y16	Z16	X17	Y17	Z17	X18	Y18	Z18	X19	Y19	Z19	X20	Y20	Z20	X21	Y21	Z21	X22	Y22	Z22	X23	Y23	Z23	X24	Y24	Z24	X25	Y25	Z25	X26	Y26	Z26	X27	Y27	Z27	X28	Y28	Z28	X29	Y29	Z29	X30	Y30	Z30	X31	Y31	Z31	X32	Y32	Z32	X33	Y33	Z33	

53	2.837142857143	791.395030753941	1008.994475118542	436.473968947167	977.160101128177	1440.368253947777	254.398050784483	1074.033670531409	1373.192320314279	419.456983273646	982.474026848194	1442.276607955367	591.394165984654	948.187371969846	1500.591044133992	411.448262648750	1020.531681410259	951.546494352363	556.682879129728	1009.787652484929	966.446285917205	283.153973500036	1101.268047389323	778.190470599606	531.505250574639	1060.903046661341	659.005453365094	610.048740539997	1150.159173315212	616.222581912296	533.293394594160	1167.898388718955	505.316405198076	559.493578328629	1053.289679669387	750.057421461883	305.895264210575	957.671527184412	636.260098814824	250.885976141841	1042.468833546080	556.898248629676	309.636108660891	1041.241172565371	488.173190527416	320.353609439941	1012.911815226207	416.239941519371	314.163429171406	919.478683348741	303.780211029426	267.353891191434	968.454448333079	191.470434565261	337.244901194522	1092.307131810636	430.457811850589	570.948027674997	973.218034517256	392.784179981687	637.521696790383	957.133483272242	281.964121126023	592.603828502420	757.099404168969	224.290688921633	577.212033497981	925.094017917665	157.219406152448	607.090053933702	816.026938691135	156.697952329779	643.383670031766	985.667713701890	38.379783601860	621.865523486759	839.744349096449	38.840678958506	387.745935205846	907.751661142285	35.101903853706	301.776951432993	992.900851278098	95.614951806877	323.887740083352	1119.378244395864	42.211144103833	285.626035253921	1033.693427954153	1113.652502482747	92.427538914881	1247.906179246826	960.886469067304	74.166660060055	906.079787533790	1099.334667598090	701.145363924065	939.007510008143	839.371315753509	702.264250596863	
54	2.850357142857	790.687070240310	1009.816595980707	434.755200990941	979.268139631851	1440.955474544476	253.704770455295	1074.188789705289	1373.526738879486	419.733657706886	981.022305480738	1442.997548310731	590.599214615901	948.619166084540	1501.150195400214	410.528240901348	1018.895073022217	952.569554943087	556.630966662335	1009.998017935303	966.683109059656	283.105017309779	1101.257491156832	781.304354095860	531.085161862933	1062.954033493170	661.716683413627	609.992875531826	1152.569648668481	620.025181008073	533.072611940751	1172.377927334886	509.759261727418	559.515347692699	1051.557015913705	749.345509146246	306.439453251815	955.038810781385	636.384452920340	250.946620866901	1038.706033945145	556.312057205123	310.197801960880	1036.786466957897	487.753288718288	320.973049451809	1008.394711732992	416.110239979062	314.502286826543	914.841061889668	303.878654445197	267.399160312642	963.387709833386	191.428149657568	337.353252468614	1098.557360981136	433.232138365366	571.022926555802	980.592348298445	392.071555062201	637.469389154957	967.878753348141	280.755050775281	592.662113321950	769.637279550400	216.834463008506	577.238814794170	939.861673125092	155.495636363002	607.525549895722	830.649953499977	151.179286525168	643.412301639022	1003.829408610857	38.565596408643	621.922562345993	834.360897833900	38.861484103661	387.690896096022	902.422709443832	35.107508973866	301.734845273973	987.584481910198	95.607465102252	323.863997977813	1114.062776821688	42.148017700669	285.602925506505	1040.147423813525	1116.559737377932	89.952432039886	1260.939544150116	973.487375168554	73.134045252938	895.612965764523	1102.226654795867	699.237749100758	921.287282056451	841.533041277161	700.666758325669	
55	2.863571428571	790.017552466717	1010.661574443479	433.085556240462	981.483595872527	1441.489396726712	253.148204045043	1074.414702439330	1373.821915598132	420.138842352686	979.643717439670	1443.719480517651	589.895595545769	949.115115650533	1501.657335275483	409.753211224559	1017.220613107254	953.522709569931	556.781678915274	1010.320777694133	966.879653323861	283.249792460290	1100.916731843208	784.032140248925	531.066340863002	1064.253004511337	664.072308348921	610.179057465375	1154.141276837843	623.282779202866	533.167708490619	1175.793116394580	513.913812011594	559.840419841417	1049.701728029263	748.617572330026	307.410128172025	952.426593591367	636.524538339770	251.056906251018	1034.835891962409	555.735841944217	310.907069002521	1032.178915600185	487.344884244367	321.663661486190	1003.761748515683	415.998343012030	314.879729563240	910.127828690140	303.971632408918	267.461857427719	958.275276895275	191.396037310562	337.472047094464	1104.205767125349	435.600088123296	571.355948949008	987.806126679543	390.227609218652	637.682084477145	979.193702174043	278.489275350954	592.942004192344	783.388379890979	207.095615241426	577.388060471681	955.951154383621	152.683487047147	608.189429924244	846.798941577219	143.997822743545	643.712826170075	1024.075925229909	38.438072308654	622.556572404627	828.977876942621	38.880505143363	387.641359293373	897.090927288124	35.107230159939	301.700073588712	982.263592491345	95.600997837176	323.849611168906	1108.745414987218	42.092066902643	285.589689919840	1046.158349732991	1119.298318429325	87.819832049203	1272.890601119599	985.907085803487	72.570496380212	885.765288344676	1105.265922060510	697.487350764861	904.908028335250	844.112852761961	699.108316416319	
56	2.876785714286	789.390361413908	1011.487138590650	431.480698089339	983.774962141782	1441.924644875926	252.728808140870	1074.705695824615	1374.046874585116	420.667777324462	978.345546019183	1444.409393186793	589.291342532536	949.668553243729	1502.084195642889	409.112344228504	1015.530975350964	954.357936926977	557.135859982301	1010.744836720329	967.016066387481	283.580502172695	1100.241528809835	786.273813427746	531.431265040282	1064.755527757483	665.978869553786	610.597667667323	1154.816342403239	625.872859740558	533.566059143939	1178.055974043057	517.666060976241	560.431933056262	1047.748765545253	747.865050253045	308.723634783709	949.846428106079	636.663846410557	251.188389665891	1030.895425446694	555.162240503096	311.706400534070	1027.468074040084	486.940450607270	322.375191576969	999.053913830546	415.890173536303	315.263379218916	905.366704395558	304.050435850813	267.523312488216	953.134832051768	191.365631414532	337.587750870258	1109.184870155135	437.526812259692	571.925975725094	994.889602774857	387.309002211570	638.179357637951	991.048699492041	275.307678341821	593.452100519384	798.465838179086	195.380760154338	577.728224799776	973.298226316568	148.990430845701	609.063373561070	864.507036054940	135.452734697878	644.316467935578	1046.203111834196	38.185738370978	623.707616906302	823.600113271674	38.898484832931	387.595363225067	891.757994320092	35.099783219358	301.669980246116	976.940013390578	95.593422542097	323.842230445851	1103.427920464460	42.040328720795	285.584110804346	1051.752281807953	1121.799386347147	86.022061556910	1283.775493631049	997.976532877578	72.435775624755	876.634422653516	1108.353042654388	695.898359209480	889.916134686529	846.937844065523	697.613323366635	
57	2.890000000000	788.813751541865	1012.257357294450	429.963414264102	986.105293677087	1442.226237177818	252.449670697044	1075.055856570873	1374.177150098898	421.315497104770	977.140540145859	1445.037635176116	588.798088331790	950.272593930001	1502.409480990106	408.601081814709	1013.853675197626	955.036084666745	557.686371885772	1011.254315299461	967.076014731489	284.083783933858	1099.214291393041	787.932033770595	532.148584153301	1064.403473600381	667.358375953348	611.234704615873	1154.526546432069	627.689070669415	534.249109145193	1179.082418427092	520.914937959129	561.237661320963	1045.734450886423	747.080323932557	310.279158464123	947.307874939707	636.786758672715	251.324576449555	1026.926333135671	554.583105026201	312.546136080560	1022.710742949936	486.532482573720	323.069111859149	994.316589902737	415.772670072650	315.630807436211	900.587215643625	304.110136332033	267.572732135212	947.984506026323	191.328768581147	337.691507403764	1113.420431803590	439.000586338896	572.696607394150	1001.869252569802	383.414803654335	638.972095676762	1003.393846755133	271.398384333217	594.183358290497	814.960436946277	182.054790749393	578.317615257716	991.823648505855	144.688467011229	610.113217607629	883.787700190816	125.890766115954	645.229109943537	1069.980555775167	38.070089739809	625.257777936390	818.231726976783	38.916558148397	387.550793905192	886.425329907605	35.084881861663	301.642055404037	971.615004906463	95.582685263584	323.839759401425	1098.111427085958	41.989735249678	285.583998835825	1056.958571511360	1124.009284958732	84.557005075126	1293.623347574090	1009.536858628610	72.692948009383	868.296627985907	1111.389104277823	694.472892717296	876.342931789126	849.848275189036	696.210110420727	
